<svg width="24" height="24" viewBox="0 0 24 24" fill="none" xmlns="http://www.w3.org/2000/svg"><rect width="24" height="24" fill="none" rx="0" ry="0"></rect><path fill-rule="evenodd" clip-rule="evenodd" d="M9.77091 3.90519C9.81979 3.39196 10.2508 3 10.7664 3H13.2335C13.7491 3 14.1802 3.39196 14.229 3.90519L14.3726 5.41233C15.1631 5.6971 15.8877 6.12012 16.517 6.65224L17.8958 6.02217C18.3647 5.80788 18.9196 5.98521 19.1774 6.4317L20.411 8.5683C20.6688 9.01479 20.5449 9.58407 20.1248 9.88302L18.8907 10.7614C18.9625 11.1634 19 11.5773 19 12C19 12.4227 18.9625 12.8366 18.8907 13.2386L20.1248 14.117C20.5449 14.4159 20.6688 14.9852 20.411 15.4317L19.1774 17.5683C18.9196 18.0148 18.3647 18.1921 17.8958 17.9778L16.517 17.3478C15.8877 17.8799 15.1631 18.3029 14.3726 18.5877L14.229 20.0948C14.1802 20.608 13.7491 21 13.2335 21H10.7664C10.2508 21 9.81979 20.608 9.77091 20.0948L9.62737 18.5877C8.83682 18.3029 8.11229 17.8799 7.48295 17.3478L6.1042 17.9778C5.63528 18.1921 5.08031 18.0148 4.82253 17.5683L3.58896 15.4317C3.33118 14.9852 3.4551 14.4159 3.87513 14.117L5.10922 13.2386C5.03744 12.8366 4.99998 12.4227 4.99998 12C4.99998 11.5773 5.03744 11.1634 5.10922 10.7614L3.87513 9.88302C3.4551 9.58407 3.33118 9.01479 3.58896 8.5683L4.82253 6.4317C5.08031 5.98521 5.63528 5.80788 6.1042 6.02217L7.48295 6.65224C8.11229 6.12012 8.83682 5.6971 9.62737 5.41233L9.77091 3.90519ZM14.8 12C14.8 13.5464 13.5464 14.8 12 14.8C10.4536 14.8 9.19998 13.5464 9.19998 12C9.19998 10.4536 10.4536 9.2 12 9.2C13.5464 9.2 14.8 10.4536 14.8 12Z" fill="#ffffff"></path></svg>
