<svg width="24" height="24" viewBox="0 0 24 24" fill="none" xmlns="http://www.w3.org/2000/svg"><rect width="24" height="24" fill="none" rx="0" ry="0"></rect><path fill-rule="evenodd" clip-rule="evenodd" d="M12.667 15.4171C10.7828 15.4171 9.24994 13.8842 9.24994 12.0001C9.24994 10.1159 10.7828 8.58305 12.667 8.58305V15.4171ZM12.667 7.38306C10.1171 7.38306 8.04993 9.45016 8.04993 12.0001C8.04993 14.55 10.1171 16.6171 12.667 16.6171C15.2169 16.6171 17.284 14.55 17.284 12.0001C17.284 9.45016 15.2169 7.38306 12.667 7.38306Z" fill="#ffffff"></path><path fill-rule="evenodd" clip-rule="evenodd" d="M12.0669 5.52256C12.0669 5.8541 12.3354 6.12266 12.667 6.12266C12.9985 6.12266 13.2671 5.8541 13.2671 5.52256V2.6001C13.2671 2.26855 12.9985 2 12.667 2C12.3354 2 12.0669 2.26855 12.0669 2.6001V5.52256ZM12.0669 21.425C12.0669 21.7565 12.3354 22.0251 12.667 22.0251C12.9985 22.0251 13.2671 21.7565 13.2671 21.425V18.503C13.2671 18.1715 12.9985 17.9029 12.667 17.9029C12.3354 17.9029 12.0669 18.1715 12.0669 18.503V21.425ZM17.2563 8.02353C17.103 8.02353 16.9492 7.96494 16.832 7.84775C16.5977 7.61337 16.5977 7.23349 16.832 6.99911L19.3228 4.50839C19.5571 4.27402 19.937 4.27402 20.1714 4.50839C20.4058 4.74277 20.4058 5.12265 20.1714 5.35703L17.6807 7.84775C17.5635 7.96494 17.4097 8.02353 17.2563 8.02353ZM5.1626 19.5167C5.27979 19.6339 5.43311 19.6925 5.58691 19.6925C5.74023 19.6925 5.89404 19.6339 6.01123 19.5167L8.50195 17.0265C8.73633 16.7921 8.73633 16.4122 8.50195 16.1778C8.26855 15.9444 7.88867 15.9435 7.65332 16.1778L5.1626 18.6681C4.92822 18.9024 4.92822 19.2823 5.1626 19.5167ZM22.0797 12.6129H19.1572C18.8257 12.6129 18.5571 12.3443 18.5571 12.0128C18.5571 11.6812 18.8257 11.4127 19.1572 11.4127H22.0797C22.4112 11.4127 22.6798 11.6812 22.6798 12.0128C22.6798 12.3443 22.4112 12.6129 22.0797 12.6129ZM3.25427 12.6129H6.17673C6.50828 12.6129 6.77683 12.3443 6.77683 12.0128C6.77683 11.6812 6.50828 11.4127 6.17673 11.4127H3.25427C2.92273 11.4127 2.65417 11.6812 2.65417 12.0128C2.65417 12.3443 2.92273 12.6129 3.25427 12.6129ZM19.7471 19.6925C19.5938 19.6925 19.4399 19.6339 19.3228 19.5167L16.832 17.0265C16.5977 16.7921 16.5977 16.4122 16.832 16.1778C17.0664 15.9435 17.4463 15.9435 17.6807 16.1778L20.1714 18.6681C20.4058 18.9024 20.4058 19.2823 20.1714 19.5167C20.0542 19.6339 19.9004 19.6925 19.7471 19.6925ZM7.65332 7.84775C7.77051 7.96494 7.92432 8.02353 8.07764 8.02353C8.23096 8.02353 8.38477 7.96494 8.50195 7.84775C8.73633 7.61337 8.73633 7.23349 8.50195 6.99911L6.01123 4.50839C5.77686 4.27402 5.39697 4.27402 5.1626 4.50839C4.92822 4.74277 4.92822 5.12265 5.1626 5.35703L7.65332 7.84775Z" fill="#ffffff"></path><path fill-rule="evenodd" clip-rule="evenodd"></path></svg>